<svg height="512" viewBox="0 0 64 64" width="512" xmlns="http://www.w3.org/2000/svg"><g id="Email"><path d="m10 29.054 16.729 12.69 4.671-3.544a1 1 0 0 1 1.208 0l4.667 3.54 16.725-12.686v-19.054h-44zm22-14.054a9.01 9.01 0 0 1 9 9v2a2.994 2.994 0 0 1 -5.534 1.59 4.99 4.99 0 1 1 1.534-3.59v2a1 1 0 0 0 2 0v-2a7 7 0 1 0 -7 7h3a1 1 0 0 1 0 2h-3a9 9 0 0 1 0-18z"/><circle cx="32" cy="24" r="3"/><path d="m4.655 25 3.345 2.537v-5.074z"/><path d="m4 58.986 21.074-15.987-21.074-15.985z"/><path d="m56 27.537 3.345-2.537-3.345-2.536z"/><path d="m60 27.014-21.074 15.985 21.074 15.987z"/><path d="m32 40.255-26.027 19.745h52.054z"/><path d="m27.063 8h9.874l-4.937-3.745z"/></g></svg>