<?xml version="1.0" standalone="no"?>
<!DOCTYPE svg PUBLIC "-//W3C//DTD SVG 20010904//EN"
 "http://www.w3.org/TR/2001/REC-SVG-20010904/DTD/svg10.dtd">
<svg version="1.0" xmlns="http://www.w3.org/2000/svg"
 width="300.000000pt" height="180.000000pt" viewBox="0 0 300.000000 180.000000"
 preserveAspectRatio="xMidYMid meet">
<metadata>
Created by potrace 1.10, written by Peter Selinger 2001-2011
</metadata>
<g transform="translate(0.000000,180.000000) scale(0.100000,-0.100000)"
fill="#000000" stroke="none">
<path d="M460 1200 l0 -120 -230 0 -230 0 0 -30 0 -30 230 0 230 0 0 -112 0
-113 242 3 243 3 -3 109 -3 110 516 0 517 0 -3 -115 -4 -115 242 0 243 0 0
115 0 115 275 0 275 0 0 30 0 30 -275 0 -275 0 0 115 0 115 -242 0 -243 0 3
-115 4 -115 -516 0 -516 0 0 120 0 120 -240 0 -240 0 0 -120z m450 -13 c0 -69
4 -98 16 -115 15 -21 15 -25 0 -41 -12 -13 -16 -39 -16 -109 l0 -92 -210 0
-210 0 0 92 c0 70 -4 96 -16 109 -15 16 -15 20 0 41 12 17 16 46 16 115 l0 93
210 0 210 0 0 -93z m1510 -4 c0 -76 4 -100 17 -115 15 -17 15 -19 0 -36 -13
-15 -17 -39 -17 -110 l0 -92 -215 0 -215 0 0 98 c0 63 -4 102 -12 110 -9 9 -9
15 0 24 8 8 12 48 12 115 l0 103 215 0 215 0 0 -97z"/>
</g>
</svg>
