<?xml version="1.0" standalone="no"?>
<!DOCTYPE svg PUBLIC "-//W3C//DTD SVG 20010904//EN"
 "http://www.w3.org/TR/2001/REC-SVG-20010904/DTD/svg10.dtd">
<svg version="1.0" xmlns="http://www.w3.org/2000/svg"
 width="300.000000pt" height="180.000000pt" viewBox="0 0 300.000000 180.000000"
 preserveAspectRatio="xMidYMid meet">
<metadata>
Created by potrace 1.10, written by Peter Selinger 2001-2011
</metadata>
<g transform="translate(0.000000,180.000000) scale(0.100000,-0.100000)"
fill="#000000" stroke="none">
<path d="M1250 1200 l0 -120 -625 0 -625 0 0 -30 0 -30 625 0 625 0 0 -112 0
-113 245 0 245 0 0 113 0 112 630 0 630 0 0 30 0 30 -630 0 -630 0 0 120 0
120 -245 0 -245 0 0 -120z m460 -19 c0 -75 4 -102 15 -111 13 -11 13 -15 0
-33 -11 -15 -15 -48 -15 -114 l0 -93 -217 0 -218 0 3 86 c3 66 0 91 -13 110
-14 22 -14 27 0 46 11 16 15 48 15 115 l0 93 215 0 215 0 0 -99z"/>
</g>
</svg>
