<svg id="Layer_3" enable-background="new 0 0 64 64" height="512" viewBox="0 0 64 64" width="512" xmlns="http://www.w3.org/2000/svg"><path d="m59.393 1c-.358 0-.715.054-1.062.16l-12.05 3.708-1.402-1.403c-.944-.945-2.2-1.465-3.536-1.465h-2.343c-.375 0-.718.209-.89.542-.171.333-.142.734.076 1.039l5 7c.19.267.496.419.814.419.072 0 .145-.008.217-.024l5.476-1.217-.679 4.076c-.062.371.09.746.393.969.174.13.383.196.593.196.152 0 .306-.035.447-.105l2.64-1.32c1.097-.549 1.951-1.478 2.406-2.615l1.093-2.732 5.63-1.251c.459-.102.784-.508.784-.977v-1.392c0-1.989-1.618-3.608-3.607-3.608zm-5.757 9.217c-.272.683-.785 1.24-1.443 1.569l-.883.442.489-2.936 2.423-.538zm7.364-5.019-16.571 3.682-3.486-4.88h.399c.802 0 1.556.312 2.122.878l1.828 1.829c.263.262.647.356 1.001.249l12.624-3.884c1.013-.308 2.083.489 2.083 1.536z"/><path d="m62.555 32.168-2.175-1.45c-6.593-4.395-14.266-6.718-22.189-6.718h-.383c-6.606 0-13.03 1.637-18.808 4.723v-4.723h1c3.859 0 7-3.14 7-7s-3.141-7-7-7h-3v-3c0-.552-.447-1-1-1h-1v-5h-2v5h-1c-.553 0-1 .448-1 1v3h-3c-3.859 0-7 3.14-7 7s3.141 7 7 7h1v37h-8v2h62v-2h-3v-19h2c.553 0 1-.447 1-1v-4-4c0-.334-.167-.646-.445-.832zm-24.364-6.168c7.527 0 14.816 2.207 21.079 6.382l1.73 1.153v2.465h-46v-2.465l1.729-1.153c6.263-4.175 13.552-6.382 21.08-6.382zm-29.191-8h4v4h-4zm0-6h4v4h-4zm10 4h-4v-4h4zm-4 2h4v4h-4zm6 3.899v-3.899h3.899c-.399 1.956-1.943 3.5-3.899 3.899zm3.899-5.899h-3.899v-3.899c1.956.399 3.5 1.943 3.899 3.899zm-11.899-8h2v2h-2zm-6 4.101v3.899h-3.899c.399-1.956 1.943-3.5 3.899-3.899zm-3.899 5.899h3.899v3.899c-1.956-.399-3.5-1.943-3.899-3.899zm7.899 6h6v5.869c-.461.281-.929.548-1.38.849l-2.175 1.45c-.278.186-.445.498-.445.832v4 4c0 .553.447 1 1 1h2v19h-5zm7 27h4v10h-4zm6 0h4v2h-2c-.553 0-1 .447-1 1v7h-1zm18 2v-2h4v2zm-2 0h-4v-2h4zm-6 0h-4v-2h4zm-7 2h4v6h-4zm6 0h4v6h-4zm6 0h4v6h-4zm6 0h4v6h-4zm5-2h-2v-2h4v10h-1v-7c0-.553-.447-1-1-1zm-2-4v-7h4v7zm-2 0h-4v-7h4zm-6 0h-4v-7h4zm-6 0h-4v-7h4zm-6 0h-4v-7h4zm-6 0h-4v-7h4zm32 12v-10h4v10zm4-12h-4v-7h4zm3-9h-46v-2h46z"/><path d="m36.78 14.5h10.44v2h-10.44z" transform="matrix(.958 -.287 .287 .958 -2.682 12.71)"/><path d="m29.78 12.5h10.44v2h-10.44z" transform="matrix(.958 -.287 .287 .958 -2.402 10.616)"/></svg>