<svg height="512pt" viewBox="0 0 512.016 512" width="512pt" xmlns="http://www.w3.org/2000/svg"><path d="m282.667969 512.007812h-224c-32.363281 0-58.667969-26.304687-58.667969-58.667968v-394.664063c0-32.363281 26.304688-58.6679685 58.667969-58.6679685h224c32.363281 0 58.664062 26.3046875 58.664062 58.6679685v117.332031c0 8.832032-7.167969 16-16 16s-16-7.167968-16-16v-117.332031c0-14.699219-11.964843-26.667969-26.664062-26.667969h-224c-14.699219 0-26.667969 11.96875-26.667969 26.667969v394.664063c0 14.699218 11.96875 26.667968 26.667969 26.667968h224c14.699219 0 26.664062-11.96875 26.664062-26.667968v-117.332032c0-8.832031 7.167969-16 16-16s16 7.167969 16 16v117.332032c0 32.363281-26.300781 58.667968-58.664062 58.667968zm0 0"/><path d="m496 272.007812h-309.332031c-8.832031 0-16-7.167968-16-16 0-8.832031 7.167969-16 16-16h309.332031c8.832031 0 16 7.167969 16 16 0 8.832032-7.167969 16-16 16zm0 0"/><path d="m410.667969 357.339844c-4.097657 0-8.191407-1.554688-11.308594-4.691406-6.25-6.25-6.25-16.382813 0-22.636719l74.027344-74.023438-74.027344-74.027343c-6.25-6.25-6.25-16.386719 0-22.636719s16.382813-6.25 22.636719 0l85.332031 85.335937c6.25 6.25 6.25 16.382813 0 22.632813l-85.332031 85.332031c-3.136719 3.160156-7.234375 4.714844-11.328125 4.714844zm0 0"/></svg>